<svg xmlns="http://www.w3.org/2000/svg" width="150.166" height="94.657" viewBox="0 0 150.166 94.657">
  <g id="Layer_2" data-name="Layer 2" transform="translate(2 2)">
    <g id="Layer_1" data-name="Layer 1" transform="translate(0 0)">
      <path id="Path_1" data-name="Path 1" d="M109.422.38V73.485H41.859a12.492,12.492,0,0,0-22.565,0H.38V.38Z" transform="translate(-0.38 -0.38)" fill="none" stroke="#0571b8" stroke-miterlimit="10" stroke-width="4"/>
      <path id="Path_2" data-name="Path 2" d="M12.667,17a13.2,13.2,0,0,0-1.144,5.278,13.68,13.68,0,0,0,1.144,5.41H2.33V17Z" transform="translate(6.247 56.105)" fill="none" stroke="#0571b8" stroke-miterlimit="10" stroke-width="4"/>
      <path id="Path_3" data-name="Path 3" d="M81.024,17a12.58,12.58,0,0,0-1.232,5.278,13.2,13.2,0,0,0,1.232,5.19H9.81A13.2,13.2,0,0,0,11,22.058,12.536,12.536,0,0,0,9.81,17Z" transform="translate(31.669 56.105)" fill="none" stroke="#0571b8" stroke-miterlimit="10" stroke-width="4"/>
      <path id="Path_4" data-name="Path 4" d="M42.209,17V27.689H31.08a13.2,13.2,0,0,0,1.188-5.41A12.537,12.537,0,0,0,31.08,17Z" transform="translate(103.958 56.105)" fill="none" stroke="#0571b8" stroke-miterlimit="10" stroke-width="4"/>
      <path id="Path_5" data-name="Path 5" d="M62.158,5.23V57H51.03a12.448,12.448,0,0,0-22.345,0H25.21V5.23Z" transform="translate(84.008 16.103)" fill="none" stroke="#0571b8" stroke-miterlimit="10" stroke-width="4"/>
      <path id="Path_6" data-name="Path 6" d="M50.62,27.577a13.2,13.2,0,0,1-1.188,5.41,12.492,12.492,0,0,1-22.521,0,13.2,13.2,0,0,1-1.232-5.41,12.58,12.58,0,0,1,1.408-5.058,12.448,12.448,0,0,1,22.521,0,12.536,12.536,0,0,1,1.012,5.058Z" transform="translate(85.605 50.587)" fill="none" stroke="#0571b8" stroke-miterlimit="10" stroke-width="4"/>
      <path id="Path_7" data-name="Path 7" d="M29.316,27.533a13.2,13.2,0,0,1-1.188,5.41,12.536,12.536,0,0,1-22.565,0,13.68,13.68,0,0,1-1.144-5.41,13.2,13.2,0,0,1,1.144-5.058,12.492,12.492,0,0,1,23.753,5.278Z" transform="translate(13.35 50.63)" fill="none" stroke="#0571b8" stroke-miterlimit="10" stroke-width="4"/>
    </g>
  </g>
</svg>
