<svg xmlns="http://www.w3.org/2000/svg" width="112.207" height="121.424" viewBox="0 0 112.207 121.424">
  <g id="Layer_2" data-name="Layer 2" transform="translate(2.001 2.032)">
    <g id="Layer_1" data-name="Layer 1" transform="translate(0 0)">
      <path id="Path_17" data-name="Path 17" d="M53.667,2.46a54.1,54.1,0,1,0,54.939,53.751l-36.289.352" transform="translate(-0.4 6.731)" fill="none" stroke="#0571b8" stroke-miterlimit="10" stroke-width="4"/>
      <path id="Path_18" data-name="Path 18" d="M0,0H17.595V9.325a5.454,5.454,0,0,1-5.322,5.454H5.5A5.454,5.454,0,0,1,0,9.325Z" transform="translate(71.536 0) rotate(89.06)" fill="none" stroke="#0571b8" stroke-miterlimit="10" stroke-width="4"/>
      <line id="Line_25" data-name="Line 25" x1="6.686" y2="0.132" transform="translate(71.653 4.705)" fill="none" stroke="#0571b8" stroke-miterlimit="10" stroke-width="4"/>
      <line id="Line_26" data-name="Line 26" x1="6.686" y2="0.088" transform="translate(71.784 12.886)" fill="none" stroke="#0571b8" stroke-miterlimit="10" stroke-width="4"/>
      <rect id="Rectangle_203" data-name="Rectangle 203" width="6.686" height="4.047" transform="translate(56.825 5.81) rotate(89.06)" fill="none" stroke="#0571b8" stroke-miterlimit="10" stroke-width="4"/>
      <rect id="Rectangle_204" data-name="Rectangle 204" width="32.55" height="52.344" rx="0.93" transform="translate(37.695 37.035)" fill="none" stroke="#0571b8" stroke-miterlimit="10" stroke-width="4"/>
      <line id="Line_27" data-name="Line 27" x2="21.729" transform="translate(43.105 30.349)" fill="none" stroke="#0571b8" stroke-miterlimit="10" stroke-width="4"/>
      <line id="Line_28" data-name="Line 28" x2="21.729" transform="translate(43.105 53.046)" fill="none" stroke="#0571b8" stroke-miterlimit="10" stroke-width="4"/>
      <line id="Line_29" data-name="Line 29" x2="21.729" transform="translate(43.105 63.734)" fill="none" stroke="#0571b8" stroke-miterlimit="10" stroke-width="4"/>
      <line id="Line_30" data-name="Line 30" x2="21.729" transform="translate(43.105 74.731)" fill="none" stroke="#0571b8" stroke-miterlimit="10" stroke-width="4"/>
    </g>
  </g>
</svg>
