<svg xmlns="http://www.w3.org/2000/svg" width="110.378" height="119.069" viewBox="0 0 110.378 119.069">
  <g id="Layer_2" data-name="Layer 2" transform="translate(4.571 2)">
    <g id="Layer_1" data-name="Layer 1" transform="translate(0 0)">
      <path id="Path_8" data-name="Path 8" d="M84.619,5.716V30H57.127a7.61,7.61,0,0,0-7.654,7.61V97.911H4.08V5.54Z" transform="translate(10.084 17.157)" fill="none" stroke="#0571b8" stroke-miterlimit="10" stroke-width="4"/>
      <path id="Path_9" data-name="Path 9" d="M7.27,12.9H21.961v7.786a4.4,4.4,0,0,1-4.4,4.4H11.8a4.4,4.4,0,0,1-4.4-4.4V12.9Z" transform="translate(20.925 42.171)" fill="none" stroke="#0571b8" stroke-miterlimit="10" stroke-width="4"/>
      <line id="Line_23" data-name="Line 23" y2="5.586" transform="translate(32.154 49.485)" fill="none" stroke="#0571b8" stroke-miterlimit="10" stroke-width="4"/>
      <line id="Line_24" data-name="Line 24" y2="5.586" transform="translate(38.928 49.485)" fill="none" stroke="#0571b8" stroke-miterlimit="10" stroke-width="4"/>
      <path id="Path_10" data-name="Path 10" d="M57.858,18.71V79.015H14.4V18.71a7.61,7.61,0,0,1,7.654-7.61H50.2a7.61,7.61,0,0,1,7.654,7.61Z" transform="translate(45.157 36.053)" fill="none" stroke="#0571b8" stroke-miterlimit="10" stroke-width="4"/>
      <path id="Path_11" data-name="Path 11" d="M.86,23.253H104.667V.38H53.2A71.17,71.17,0,0,0,.86,23.253Z" transform="translate(-0.86 -0.38)" fill="none" stroke="#0571b8" stroke-miterlimit="10" stroke-width="4"/>
      <path id="Path_12" data-name="Path 12" d="M30.958,28.636h-5.41V15.66l-7.7,14.823h5.41V43.5Z" transform="translate(56.883 51.551)" fill="none" stroke="#0571b8" stroke-miterlimit="10" stroke-width="4"/>
      <path id="Path_13" data-name="Path 13" d="M31.609,46.912H16.566A7.478,7.478,0,0,1,9,39.435V15.33" transform="translate(26.805 50.43)" fill="none" stroke="#0571b8" stroke-miterlimit="10" stroke-width="4"/>
      <rect id="Rectangle_202" data-name="Rectangle 202" width="10.513" height="3.519" transform="translate(30.614 67.871)" fill="#0571b8"/>
    </g>
  </g>
</svg>
