<svg xmlns="http://www.w3.org/2000/svg" width="108.511" height="119.069" viewBox="0 0 108.511 119.069">
  <g id="Layer_2" data-name="Layer 2" transform="translate(2 2)">
    <g id="Layer_1" data-name="Layer 1" transform="translate(0 0)">
      <path id="Path_14" data-name="Path 14" d="M25.273,12.676a7.742,7.742,0,1,1-2.252-5.5,7.742,7.742,0,0,1,2.252,5.5" transform="translate(31.601 14.948)" fill="none" stroke="#0571b8" stroke-miterlimit="10" stroke-width="4"/>
      <path id="Path_15" data-name="Path 15" d="M55.231,29.928h13.2V23.2H60.289L50.172,9.65H20L13.532,25.441h6.774l3.651-9.017H32.4L20,50.249H.38v9.017H26.772l8.445-17.595L50.744,74.926H61.433L44.234,34.9l3.959-13.812Z" transform="translate(-0.38 31.125)" fill="none" stroke="#0571b8" stroke-miterlimit="10" stroke-width="4"/>
      <path id="Path_16" data-name="Path 16" d="M7.35,115.448H81.2V.38H7.35V16.3" transform="translate(23.308 -0.38)" fill="none" stroke="#0571b8" stroke-miterlimit="10" stroke-width="4"/>
    </g>
  </g>
</svg>
